<svg xmlns="http://www.w3.org/2000/svg" width="222" height="50" viewBox="0 0 222 50"><g transform="translate(-419.234 -728)"><g transform="translate(0 244.09)"><path d="M591.362,326.674a5.771,5.771,0,0,0-1.785-.3c-1.493,0-2.174.728-2.174,2.481l-.025,1.435H590.7l.009,4.125h-3.336l.025,12.333h-4.933l.013-12.342h-2.488v-4.144h2.48l0-1.374c0-4.366,1.915-6.582,6.621-6.582a11.549,11.549,0,0,1,2.6.264l-.325,4.1Z" transform="translate(-133.337 174.219)" fill="#2c2c2c"/><path d="M631.8,351.325c-2.694-.617-4.122.941-4.122,4.966v6.653h-4.933v-16.13h4.609a19.989,19.989,0,0,1-.227,2.856h.065c.844-1.915,2.37-3.408,4.836-3.246l-.227,4.9Z" transform="translate(-162.631 158.024)" fill="#2c2c2c"/><path d="M661.415,328.115a2.969,2.969,0,1,1,3.051-2.968,2.995,2.995,0,0,1-3.051,2.968Zm-2.467,18.543-.016-16.482h4.922l.027,16.482Z" transform="translate(-187.076 174.308)" fill="#2c2c2c"/><path d="M690.639,346.957a21.376,21.376,0,0,1-4.837-.535l.28-5.141a15.3,15.3,0,0,0,4.978.893c2,0,3.435-.857,3.435-2.571,0-4.106-9.428-2-9.428-10.068,0-4.534,3.47-7.534,9.394-7.534a23.786,23.786,0,0,1,4.311.428l-.315,4.82a15.2,15.2,0,0,0-4.206-.643c-2.278,0-3.33,1-3.33,2.356,0,3.749,9.429,2.321,9.429,9.854,0,4.677-3.68,8.141-9.709,8.141Z" transform="translate(-205.247 174.432)" fill="#2c2c2c"/><path d="M750.007,362.9a15.5,15.5,0,0,1,.13-2.434H750.1a5.29,5.29,0,0,1-4.933,2.791c-3.084,0-4.706-1.818-4.706-4.414,0-4.09,3.96-6.037,9.088-6.037v-.616c0-1.331-.747-1.98-2.889-1.98a11.076,11.076,0,0,0-4.706,1.169l-.389-4.09a20.583,20.583,0,0,1,5.842-.941c5.55,0,7.108,2.077,7.108,5.777v6.946c0,1.169.032,2.564.13,3.83Zm-.454-6.946c-3.57,0-4.414.974-4.414,2.142,0,.811.585,1.4,1.623,1.4a2.943,2.943,0,0,0,2.792-3.083v-.454Z" transform="translate(-243.188 158.069)" fill="#2c2c2c"/><path d="M813.369,363.044V352.918c0-1.363-.325-2.207-1.461-2.207-1.493,0-3.148,1.915-3.148,4.577v7.757h-4.868V352.918c0-1.3-.292-2.207-1.461-2.207-1.59,0-3.181,2.013-3.181,4.577v7.757h-4.933v-16.13h4.641a20.447,20.447,0,0,1-.195,2.564h.032a5.788,5.788,0,0,1,5.161-2.921c2.466,0,3.894,1.2,4.414,2.921a5.641,5.641,0,0,1,5.1-2.921c3.148,0,4.869,1.785,4.869,5.42v11.068Z" transform="translate(-279.86 157.924)" fill="#2c2c2c"/><path d="M519.47,346.749h-6.538l-2.937-8.4,4.377-3.916-5.719,0-2.419-6.875-2.376,6.873H498.1l4.382,3.919-2.937,8.4H493l8.531-24.432h9.389" transform="translate(-73.766 174.213)" fill="#2c2c2c"/></g><rect width="222" height="50" transform="translate(419.234 728)" fill="none" opacity="0.501"/></g></svg>