<svg xmlns="http://www.w3.org/2000/svg" width="222" height="50" viewBox="0 0 222 50"><g transform="translate(-419.234 -589)"><rect width="222" height="50" transform="translate(419.234 589)" fill="none" opacity="0.501"/><path d="M54.249,19.476c0,.178.056.281.159.281a.48.48,0,0,0,.224-.094L83.776.748a2.805,2.805,0,0,1,1.683-.5h6.4A1.553,1.553,0,0,1,93.51,1.879v12.23a3.076,3.076,0,0,1-1.636,3.123L84.1,21.907a.533.533,0,0,1-.262.094c-.093,0-.187-.075-.187-.346V7.387c0-.168-.047-.281-.159-.281a.439.439,0,0,0-.224.093l-21.3,13.838a2.855,2.855,0,0,1-1.636.5H46.217a1.551,1.551,0,0,1-1.646-1.646V2.263c0-.131-.056-.252-.168-.252a.458.458,0,0,0-.224.094L30.126,10.538c-.14.094-.178.159-.178.224s.028.112.122.215L40.112,21.01c.131.131.224.234.224.346,0,.094-.15.168-.327.168h-9.07a2.2,2.2,0,0,1-1.646-.486L23.207,14.96a.262.262,0,0,0-.187-.094.4.4,0,0,0-.187.056L12.66,21.038a2.8,2.8,0,0,1-1.646.477H1.655A1.546,1.546,0,0,1,0,19.878v-12A3.062,3.062,0,0,1,1.646,4.759L9.462.065A.4.4,0,0,1,9.668,0c.122,0,.187.122.187.393V16.456c0,.168.037.243.159.243a.56.56,0,0,0,.234-.094L36.652.72A2.857,2.857,0,0,1,38.391.234H52.6A1.553,1.553,0,0,1,54.249,1.87L54.24,19.476Z" transform="translate(419.234 603)" fill="#2c2c2c"/></g></svg>