<svg xmlns="http://www.w3.org/2000/svg" width="222" height="50" viewBox="0 0 222 50"><g transform="translate(-751 -589)"><rect width="222" height="50" transform="translate(751 589)" fill="none" opacity="0.501"/><g transform="translate(18414 3400.88)"><path d="M7.576,1.779,0,23.163H21.2L23.2,17.286H10.947L16.039,1.779Z" transform="translate(-17663 -2799.351)" fill="#2c2c2c"/><path d="M145.957,23.163l3.535-10.6-8.666,7.606h-.152L137.1,12.563l-3.535,10.6h-8.7l5.185-15.169H113.194l-.722,2.052H126.4l-1.71,5.163H110.761l-.8,2.088H124.1l-1.938,5.865H99.283l7.146-21.384h34.359l3.193,7.515,8.21-7.515h9.768l-7.145,21.384Z" transform="translate(-17738.418 -2799.351)" fill="#2c2c2c"/><path d="M391.955,20.78c-2.509,2.016-6.309,2.81-10.528,2.81-7.487,0-11.516-2.872-11.516-7.7a11.243,11.243,0,0,1,.57-3.452l3.052-9.108-10.2,8.222,5.549,11.608H359.42l-3.193-6.873L352.5,19.283l-1.292,3.88h-8.894l7.145-21.384h8.894l-2.585,7.668,8.856-7.668H383.1L379.374,12.9a5.892,5.892,0,0,0-.3,1.68c0,1.772,1.292,2.688,3.649,2.688a4.567,4.567,0,0,0,2.851-.886,6.169,6.169,0,0,0,1.9-3.116l3.839-11.486h9.046l-4.219,12.586a13.285,13.285,0,0,1-4.181,6.415" transform="translate(-17923.031 -2799.351)" fill="#2c2c2c"/><path d="M582.7,8.431c4.523,1.344,7.411,2.871,7.411,6.14a6.326,6.326,0,0,1-2.547,5.01c-2.015,1.62-5.283,2.658-9.5,2.658a22.39,22.39,0,0,1-13.113-3.88l5.093-4.888a16.279,16.279,0,0,0,8.97,3.024c1.14,0,1.939-.336,1.939-.947,0-.672-.494-.886-4.371-2.047-4.941-1.466-7.26-2.872-7.26-6.018a6.09,6.09,0,0,1,2.508-4.735C573.92,1.069,577.189,0,581.294,0a21.262,21.262,0,0,1,11.859,3.208L588.059,8.1a14.71,14.71,0,0,0-7.678-2.383c-1.14,0-1.938.245-1.938.855,0,.642.57.764,4.257,1.863" transform="translate(-18092.152 -2797.999)" fill="#2c2c2c"/></g></g></svg>