<svg xmlns="http://www.w3.org/2000/svg" width="222" height="50" viewBox="0 0 222 50"><g transform="translate(-1091 -589)"><rect width="222" height="50" transform="translate(1091 589)" fill="none" opacity="0.501"/><g transform="translate(373 -323.369)"><path d="M194.306,243.238l-3.572-.01-4.172-.01,4.172-14.606.483-1.667h8.165l-2.837,9.846-1.87,6.448h-.368Zm0-21.422-.935,3.23H188.5l-5.138,18.171-8.122.021,5.17-18.181-6.147-.011,1.5-5.316h19.155l-.294,1.017Zm.316-4.372-.294.031c.095-.053.189-.115.294-.178.609-.367,1.25-.724,1.923-1.08a33.364,33.364,0,0,1,12.483-3.659c.893-.074,1.8-.115,2.711-.1a29.309,29.309,0,0,1,9.32,1.562,25.624,25.624,0,0,1,11.127,7.518,23.84,23.84,0,0,1,1.492,1.94,17.7,17.7,0,0,0-1.492-1.1,27.169,27.169,0,0,0-11.127-3.712,38.338,38.338,0,0,0-5.916-.294,29.386,29.386,0,0,0-6.115.776,34.667,34.667,0,0,0-9.709,4.216,5.578,5.578,0,0,0,.168-1.258,4.686,4.686,0,0,0-2.942-4.383,4.324,4.324,0,0,0-1.608-.283c-.1,0-.21,0-.315.01m-.316,32.2H193.7l.609-1.929.063-.22H200.8c4.308-.011,6.6-1.447,7.429-4.289.011-.021.336-.933.4-1.227l-.82.577a4.683,4.683,0,0,1-2.606.661h-3.846c-2.248,0-3.678-.933-2.826-3.88l2.637-9.29a3.867,3.867,0,0,1,3.72-3.114h4.14s1.638.138,2.282.245a1.873,1.873,0,0,1,1.521,1.113c.2-1.315.3-1.357.3-1.357H221.5l-.441,1.552-4.172,14.7c-.714,2.4-.893,5.652-7.859,6.323a27.921,27.921,0,0,1-2.8.126l-9.688.01h-2.238Zm14.721-19.188c-.651.44-.8,1.174-1.072,1.971l-1.776,6.291c-.336,1.227.032,1.489,1.345,1.479h1.544l2.921-10.181-1.072.01a3.364,3.364,0,0,0-1.891.43m12.031,11.838a3.3,3.3,0,0,1-.221-3.02l.221-.734,2.469-8.472a3.934,3.934,0,0,1,3.667-3.124l4.991-.01H240.1a3.733,3.733,0,0,1,2.375.461c.63.493,1,1.478.441,3.429l-.441,1.426L242,233.78l-9.814,1.531-2.784.44-.841,2.894c-.284.933-.021,1.5,1.324,1.5l1.566-.01.735-2.506.326-1.122,8.732-.021-1.019,3.565a4.526,4.526,0,0,1-3.7,3.166H223.706a3.266,3.266,0,0,1-2.648-.923m11.127-12.142c-1.345.294-1.513,1.143-1.86,2.191l-.389,1.51c.746-.21,1.492-.419,2.248-.629.452-.126.9-.262,1.366-.388l.872-2.8h-1.072a5.136,5.136,0,0,0-1.167.115m10.287,13.065h-.7l.7-2.5,3.919-13.788h8.9l-.357,1.09s2.774-.734,5.043-1.3c3.31-.818,6.263-.021,5.4,3.072l-.746,2.59-9.856,2.988c.82-1.08,2.259-2.968,2.837-3.786.357-.5,1.125-1.866-.2-1.74-1.051.052-3,.294-3,.294l-3.814,13.075Z" transform="translate(544.47 701.252)" fill="#2c2c2c"/><path d="M184.542,405.153h.851l-.851,1.353-4.161,6.6-3.572.01.557-6.124-3.467,6.124h-3.6q.173-3.98.336-7.958h2.859c-.242,2.034-.484,4.079-.715,6.113l3.5-6.1,3.541-.01-.578,6.113,3.436-6.113Zm0,5.369c.788-2.37,1.6-4.75,2.364-7.12l2.69.01-1.492,4.614a4.476,4.476,0,0,1,2.984-1.017c2.154,0,2.606,1.143,2.217,2.38l-1.251,3.712h-2.711c.315-.954.641-1.919.967-2.873.095-.3.6-1.5-.756-1.5a2.325,2.325,0,0,0-2.311,1.866L186.4,413.1h-2.711q.426-1.274.851-2.579m13.975-2.16c-.567.126-1.4.472-1.534,1.2H200c.231-.912-.326-1.248-1.093-1.248a2.21,2.21,0,0,0-.389.052m0,2.359H196.6c-.284,1.185,1.45,1.143,1.912,1.143h.031a7.778,7.778,0,0,0,2.564-.461l-.5,1.468a7.434,7.434,0,0,1-2.091.336c-.368.031-.694.031-.914.031-2.6,0-4.192-1.153-3.531-3.125a4.986,4.986,0,0,1,4.445-3.062,6.847,6.847,0,0,1,.82-.052c2.91,0,3.436,1.573,2.847,3.345l-.126.377Zm8.942-2.38a2.168,2.168,0,0,0-1.534,1.206h1.534l1.482.01c.179-.608-.052-1.248-1.093-1.248a2.244,2.244,0,0,0-.389.031m0,2.37h-1.891c-.389.965.662,1.143,1.891,1.153a7.766,7.766,0,0,0,2.6-.461l-.5,1.457a7.736,7.736,0,0,1-2.091.367c-.431.021-.777.021-.914.01-2.616,0-4.2-1.153-3.531-3.125a4.966,4.966,0,0,1,4.445-3.072,6.7,6.7,0,0,1,.8-.052c2.942,0,3.467,1.573,2.869,3.355l-.126.377Zm4.224,2.391q1.292-4.294,2.616-8.6c.851-.011,1.7-.011,2.553-.011h.168c-.053.189-.116.378-.168.566q-1.23,4.027-2.448,8.042Zm5.17-.8a1.2,1.2,0,0,1-.084-1.1,1.9,1.9,0,0,1,.084-.22,3.221,3.221,0,0,1,2.207-1.573,1.218,1.218,0,0,1-.567-1.457,2.314,2.314,0,0,1,1.639-1.331,6.444,6.444,0,0,1,1.272-.22,3.852,3.852,0,0,1,.494-.021c1.513,0,2.868.388,2.458,1.625-.273.839-1.366,1.258-2.417,1.667.4.346.778.692,1.135,1.059a2.355,2.355,0,0,0,.967-1.206h2.028c-.378,1.027-.715,1.436-2.081,2.265a9.941,9.941,0,0,1,1.093,1.311h-2.469a1.462,1.462,0,0,0-.357-.5,5.03,5.03,0,0,1-.851.356,6.015,6.015,0,0,1-1.272.231c-.252.021-.514.031-.756.031a2.99,2.99,0,0,1-2.522-.912m3.278-1.887c-.052-.052-.115-.1-.168-.157-.914.336-1.051.713-1.082.912s-.157.9,1.082.9h.168a3.153,3.153,0,0,0,1.272-.356c-.4-.462-.83-.881-1.272-1.3m1.272-2.946c-.4.031-.883.21-.946.577-.063.3.042.514.525.891.137-.052.273-.1.42-.168.41-.178.83-.4.935-.723.137-.4-.242-.587-.777-.587a.787.787,0,0,0-.158.011m11.316,8.21c-.115.011-.22.011-.315.011a10.081,10.081,0,0,1-1.618-.137c.221-.535.462-1.069.694-1.594a3.744,3.744,0,0,0,1.019.115,1.584,1.584,0,0,0,.22-.01,1.935,1.935,0,0,0,1.419-.828c-.368-2-.525-2.705-1.135-6.218.977,0,1.944-.01,2.921-.01.126,1.332.252,2.653.368,3.974l2.931-3.974h2.7l-.651.776c-1.355,1.636-2.7,3.271-4.056,4.9a5.83,5.83,0,0,1-4.5,3m0-9.227H231.71l-2.186,6.648H226.74l2.186-6.648h-2.585l.536-1.6h7.765l-.378,1.6Zm8.553,6.648h-.651c.221-.671.431-1.342.651-2.013.441-1.363.883-2.716,1.324-4.079.819,0,1.629,0,2.469-.011-.137.378-.273.755-.378,1.133h.031a4.292,4.292,0,0,1,2.732-1.269c.136,0,.263,0,.388.01q.269.031.5.063c-.168.42-.336.828-.5,1.237-.073.178-.137.346-.21.514a3.665,3.665,0,0,0-.883-.073,2.619,2.619,0,0,0-2.6,1.908l-.83,2.579Zm6.567-.891a2.073,2.073,0,0,1-.357-2.17,3.62,3.62,0,0,1,.357-.8A5.316,5.316,0,0,1,251.9,406.9a6.889,6.889,0,0,1,.82-.052c2.932,0,3.447,1.6,2.858,3.429l-.137.377H251.9c-.63,0-1.25.011-1.881.011-.284,1,.189,1.154,1.881,1.164h.053a7.449,7.449,0,0,0,2.553-.472l-.5,1.489a10.7,10.7,0,0,1-2.1.336c-.473.042-.83.052-.9.052a4.229,4.229,0,0,1-3.153-1.028m4.056-3.974a1.967,1.967,0,0,0-1.513,1.237H253.4c.031-.5-.084-1.279-1.1-1.279a1.6,1.6,0,0,0-.4.042" transform="translate(547.706 545.345)" fill="#2c2c2c"/></g></g></svg>